<svg version="1.1" id="Layer_1" xmlns="http://www.w3.org/2000/svg" xmlns:xlink="http://www.w3.org/1999/xlink" x="0px" y="0px"
	 width="100%" viewBox="0 0 1536 1024" enable-background="new 0 0 1536 1024" xml:space="preserve">
<path fill="#FEFEFE" opacity="1.000000" stroke="none" 
	d="
M1002.000000,1025.000000 
	C668.000000,1025.000000 334.500000,1025.000000 1.000000,1025.000000 
	C1.000000,683.666687 1.000000,342.333344 1.000000,1.000000 
	C513.000000,1.000000 1025.000000,1.000000 1537.000000,1.000000 
	C1537.000000,342.333344 1537.000000,683.666687 1537.000000,1025.000000 
	C1358.833374,1025.000000 1180.666626,1025.000000 1002.000000,1025.000000 
M341.363098,409.162781 
	C334.962433,416.067596 328.468750,422.889893 322.220551,429.929993 
	C320.455139,431.919128 319.407532,434.545349 317.628174,437.533417 
	C316.497864,442.383179 315.186432,447.199554 314.284973,452.091492 
	C313.255157,457.680267 312.590179,463.336243 311.174652,469.392761 
	C310.496002,473.517456 309.817383,477.642151 308.855560,483.488007 
	C314.241821,481.362518 318.208923,479.797058 322.858734,478.297211 
	C332.927856,475.852600 342.997009,473.407990 353.797058,471.029663 
	C355.721100,469.680939 357.783234,468.489441 359.537994,466.948029 
	C362.446106,464.393677 365.156311,461.614075 368.204010,459.717285 
	C367.926178,461.457611 367.648346,463.197968 367.254059,465.667542 
	C371.655151,465.667542 375.777466,465.537415 379.888580,465.696960 
	C386.656433,465.959595 393.113953,472.614838 393.198090,479.396393 
	C393.280731,486.058044 393.190735,492.721893 393.175568,499.384766 
	C393.161682,505.479248 392.232178,506.331268 385.879486,506.311554 
	C357.292908,506.222900 328.706299,506.145355 300.119629,506.078156 
	C286.294159,506.045654 272.468262,505.973145 258.643280,506.050446 
	C245.923111,506.121552 240.773605,511.447632 240.977936,524.032166 
	C241.067596,529.553650 241.213867,529.660645 247.835236,528.477905 
	C247.835236,526.819763 247.833557,525.032654 247.835541,523.245544 
	C247.845093,514.678406 250.109039,512.420227 258.888550,512.401855 
	C272.214081,512.373962 285.539856,512.382141 298.865387,512.413757 
	C305.436279,512.429382 306.976807,514.039185 306.976318,520.771851 
	C306.975616,530.433044 306.951965,540.094177 306.928101,549.755371 
	C306.907166,558.231873 304.926025,560.153503 296.207184,560.164124 
	C290.092163,560.171509 283.977173,560.165588 277.712494,560.165588 
	C277.712494,562.584900 277.712494,564.460144 277.712494,566.909851 
	C289.061676,565.550293 300.776764,570.177734 310.618835,561.837891 
	C318.568909,566.796997 318.568878,566.805115 328.518524,566.829224 
	C333.682220,566.841736 338.846252,566.849365 344.009674,566.805054 
	C349.693665,566.756226 350.084259,566.192993 348.623993,560.082397 
	C340.546326,560.082397 332.392822,560.176025 324.242523,560.054749 
	C316.858368,559.944824 313.947723,556.939148 313.931152,549.705261 
	C313.909454,540.210693 313.923706,530.716064 313.942566,521.221436 
	C313.958252,513.322937 314.676819,512.514221 322.455627,512.531006 
	C342.774750,512.574707 363.096191,512.567505 383.410156,512.938354 
	C386.540527,512.995422 390.909729,514.048584 392.443970,516.231201 
	C394.639313,519.354248 391.770477,522.716858 389.029724,525.165771 
	C388.862091,525.315552 388.958344,525.760620 388.932068,526.065491 
	C395.359192,527.494690 399.496185,524.342712 399.621552,517.594727 
	C399.844269,505.605682 399.547180,493.599396 400.059692,481.625702 
	C400.496063,471.431396 395.102417,465.586670 386.868561,461.262573 
	C380.811890,458.081879 374.380188,458.383911 367.844299,458.283203 
	C368.302338,457.597473 368.673035,456.829254 369.231201,456.238037 
	C382.829224,441.835175 396.467896,427.470612 410.052612,413.055206 
	C416.523468,406.188660 422.898438,399.231720 429.826904,391.766113 
	C424.274536,387.613312 419.146667,383.777954 413.861572,379.287201 
	C407.750122,374.172272 401.638672,369.057343 395.154938,363.318085 
	C393.319489,361.778351 391.484009,360.238617 389.482513,358.559601 
	C381.321411,367.245087 373.477905,375.599640 365.626312,383.946533 
	C357.764130,392.304779 349.893768,400.655334 341.363098,409.162781 
M195.897980,586.471802 
	C195.587860,586.365784 195.277740,586.259766 194.471375,585.689453 
	C184.263702,581.029419 180.844864,573.071106 180.970612,561.982239 
	C181.402863,523.864990 181.072769,485.739594 181.243835,447.618225 
	C181.262726,443.406921 182.637390,439.201691 183.882187,434.609100 
	C186.157227,432.470764 188.124023,429.801819 190.753815,428.274170 
	C226.691940,407.397766 262.729706,386.692963 298.722321,365.910156 
	C306.161377,361.614777 313.502136,361.524567 320.884247,365.964752 
	C329.435516,371.108276 337.967285,376.285278 346.563995,381.351898 
	C353.046539,385.172394 353.935425,384.836945 357.930359,377.545013 
	C347.273315,371.173279 336.548126,364.883759 325.948334,358.389618 
	C314.843842,351.586182 303.858826,352.236816 292.897522,358.533722 
	C285.687134,362.675903 278.592590,367.019348 271.393372,371.181366 
	C242.739792,387.746613 214.062119,404.270233 185.401855,420.823975 
	C180.087189,423.893646 175.838684,427.922516 173.558487,434.391876 
	C173.440948,434.932068 173.323425,435.472260 172.953491,436.477905 
	C172.972519,436.653381 172.991562,436.828857 172.584488,437.715576 
	C172.309814,440.353241 171.801620,442.990326 171.795456,445.628632 
	C171.700165,486.415405 171.680252,527.202332 171.613983,567.989197 
	C171.603836,574.236145 172.832733,580.550903 177.677368,584.341858 
	C185.311188,590.315308 193.861588,595.117310 202.411545,600.910095 
	C233.183655,618.839783 263.915558,636.838928 294.751099,654.658875 
	C304.632996,660.369568 314.719391,660.215698 324.656494,654.406494 
	C333.563507,649.199402 342.496063,644.035645 351.441162,638.894226 
	C378.565063,623.303711 405.626648,607.602356 432.868469,592.220398 
	C443.537201,586.196289 447.580170,577.327637 447.519501,565.409424 
	C447.325226,527.256409 447.062897,489.093292 447.740356,450.950287 
	C448.130188,429.000763 437.504150,421.941589 419.887909,413.733521 
	C418.184326,415.879456 416.445007,418.070374 414.387604,420.661987 
	C418.866364,423.233887 422.924042,425.784454 427.174866,427.957153 
	C435.034790,431.974609 438.200775,438.312683 438.172028,447.035980 
	C438.041260,486.689789 438.028198,526.345032 438.259674,565.998108 
	C438.308838,574.419922 435.226440,580.435120 427.955139,584.444824 
	C419.532471,589.089355 411.035156,593.604797 402.705811,598.411133 
	C375.457672,614.134338 348.218201,629.874023 321.094513,645.810181 
	C313.408936,650.325684 306.233948,650.437012 298.553864,645.928772 
	C280.621002,635.402466 262.553436,625.105469 244.531174,614.731689 
	C228.393158,605.442444 212.242783,596.174683 196.074097,586.947754 
	C196.074097,586.947754 196.126038,586.929871 195.897980,586.471802 
M1187.329590,508.501923 
	C1187.322876,512.001770 1187.318115,515.501648 1187.308960,519.001465 
	C1187.279175,530.437988 1187.276855,530.305298 1198.693970,530.162170 
	C1202.080933,530.119690 1202.957031,528.916565 1202.887695,525.754883 
	C1202.697632,517.092651 1202.668579,508.423157 1202.794922,499.759735 
	C1202.838013,496.801849 1203.142212,493.732452 1204.012939,490.926849 
	C1205.645386,485.667633 1210.571655,482.802155 1216.097534,483.344269 
	C1221.598633,483.883942 1224.350586,486.617401 1225.326538,492.748383 
	C1225.638550,494.708160 1225.691284,496.723053 1225.706299,498.713867 
	C1225.775269,507.879395 1225.683960,517.048340 1225.944214,526.207703 
	C1225.980225,527.475769 1227.698242,529.788574 1228.566040,529.755127 
	C1232.779297,529.592957 1236.969849,528.806641 1241.156494,528.163391 
	C1241.260742,528.147339 1241.254272,527.227844 1241.252686,526.729797 
	C1241.213745,514.231812 1241.643555,501.709320 1240.999390,489.242340 
	C1240.257080,474.873047 1229.699463,466.664703 1215.658691,469.886475 
	C1210.066772,471.169525 1205.143799,475.366943 1199.716309,478.347473 
	C1196.503418,473.004852 1190.827271,469.418121 1183.224121,469.163055 
	C1175.893311,468.917145 1169.966431,472.077637 1164.784302,478.294800 
	C1164.360718,475.065735 1164.109375,473.149048 1163.787598,470.696625 
	C1160.263550,470.696625 1156.948364,470.917633 1153.676025,470.637177 
	C1150.090332,470.329895 1149.101318,471.711548 1149.135742,475.185333 
	C1149.281128,489.849091 1149.150879,504.515350 1149.165039,519.180664 
	C1149.175781,530.314514 1149.203979,530.164368 1160.300903,530.077942 
	C1163.962036,530.049316 1164.857910,528.669067 1164.725342,525.322937 
	C1164.501221,519.665039 1164.611816,513.992798 1164.625488,508.326721 
	C1164.636719,503.663513 1164.388062,498.969238 1164.834839,494.344818 
	C1165.478516,487.681671 1171.308105,482.632416 1177.280273,483.008362 
	C1183.557129,483.403412 1187.022095,487.492523 1187.264893,495.005890 
	C1187.399414,499.168091 1187.321289,503.337158 1187.329590,508.501923 
M382.617157,593.958984 
	C392.000763,593.062744 398.912048,586.791748 406.862183,582.784790 
	C410.490021,580.956299 412.081329,577.986145 412.009888,573.850342 
	C411.877563,566.187561 411.827362,558.513733 412.101868,550.857422 
	C412.250336,546.716187 410.868378,543.611877 407.388214,541.657104 
	C401.303345,538.239380 395.330780,534.369385 388.825836,532.050049 
	C385.141876,530.736511 380.091003,531.097412 376.367798,532.540833 
	C370.217590,534.925049 364.639801,538.788757 358.828033,542.041870 
	C355.670959,543.809082 353.971039,546.337646 354.044952,550.140076 
	C354.210052,558.636108 354.256561,567.136658 354.188446,575.634094 
	C354.152130,580.163330 356.159973,583.577332 360.045074,585.305359 
	C367.163483,588.471497 374.519135,591.104187 382.617157,593.958984 
M984.171570,528.507629 
	C997.112610,534.367310 1012.069763,530.689575 1019.406372,519.843933 
	C1028.203369,506.839386 1026.802002,487.896881 1016.338562,477.305237 
	C1011.558960,472.466980 1005.852844,469.750244 999.085754,469.268738 
	C990.511230,468.658600 983.119263,471.210999 977.109863,478.502197 
	C976.890686,475.482666 976.739197,473.395447 976.578430,471.180969 
	C971.530701,471.180969 966.838745,471.180969 961.794800,471.180969 
	C961.794800,473.272461 961.796692,474.919708 961.794495,476.566956 
	C961.763306,499.558167 961.727051,522.549377 961.702087,545.540588 
	C961.690796,555.964905 961.703186,555.795166 971.909119,555.933960 
	C975.979431,555.989380 977.401306,554.936401 977.219116,550.605164 
	C976.839844,541.587280 977.104431,532.542358 977.104431,523.082825 
	C979.645935,525.074707 981.588440,526.597168 984.171570,528.507629 
M1310.272705,478.235779 
	C1298.258057,466.442444 1286.434326,466.006348 1270.384644,476.913666 
	C1270.112427,474.951141 1269.854248,473.090759 1269.582397,471.130554 
	C1264.713989,471.130554 1260.138062,471.130554 1254.996948,471.130554 
	C1254.996948,473.076355 1254.994019,474.701447 1254.997437,476.326538 
	C1255.045898,499.146149 1255.096924,521.965759 1255.143555,544.785339 
	C1255.166138,555.768372 1255.165649,555.656128 1266.269165,555.953735 
	C1269.518921,556.040833 1270.744995,555.183289 1270.641968,551.799438 
	C1270.403809,543.977234 1270.471924,536.145142 1270.466553,528.317017 
	C1270.465698,527.132568 1270.735718,525.947998 1270.962769,524.090881 
	C1279.410645,531.733582 1288.588867,533.246643 1298.437134,530.066711 
	C1318.804199,523.490234 1325.176880,496.650909 1310.272705,478.235779 
M897.979797,468.110168 
	C898.816406,466.529266 899.645752,464.944489 900.490784,463.368134 
	C904.056152,456.717499 913.424805,454.002960 920.536316,457.555908 
	C927.045227,460.807800 929.174133,468.325012 925.283142,475.595245 
	C923.654541,478.638275 921.582031,481.596619 919.146729,484.027924 
	C909.955383,493.204102 901.032593,502.758698 891.019592,510.963928 
	C884.345276,516.433228 884.618835,522.457336 885.412720,529.628540 
	C905.218140,529.628540 924.740356,529.628540 944.825745,529.628540 
	C944.825745,525.962524 944.690247,522.660034 944.865112,519.374023 
	C945.028259,516.308594 943.749390,515.246948 940.765625,515.290527 
	C931.938599,515.419434 923.108948,515.386536 914.280334,515.380676 
	C912.598999,515.379578 910.917847,515.212402 908.339050,515.073486 
	C910.566345,513.044800 911.974731,511.885376 913.241821,510.587921 
	C921.496033,502.135498 930.499207,494.268829 937.782349,485.045776 
	C950.843689,468.505585 942.516052,446.453339 922.199158,442.471436 
	C917.710327,441.591675 912.859741,441.550537 908.315186,442.161102 
	C897.175720,443.657745 887.451843,450.250214 884.164917,462.607117 
	C888.503784,464.471649 892.907593,466.364044 897.979797,468.110168 
M255.585144,437.507599 
	C255.614716,446.663818 255.422287,455.830292 255.844711,464.968353 
	C255.939163,467.011230 257.732727,469.685791 259.531372,470.811462 
	C265.871674,474.779510 272.399567,478.535858 279.182220,481.666290 
	C281.946106,482.941925 285.953278,483.494751 288.677002,482.469513 
	C294.072784,480.438477 299.005615,477.143677 304.038147,474.213776 
	C304.909149,473.706696 305.712250,472.494995 305.898193,471.488861 
	C308.045959,459.866669 310.123077,448.230316 312.040680,436.568390 
	C312.232849,435.399689 311.642090,433.407043 310.759369,432.866058 
	C303.240967,428.258453 295.593109,423.859100 287.917297,419.515228 
	C286.984039,418.987091 285.459930,418.689575 284.540710,419.074921 
	C274.328583,423.355835 264.125031,427.698212 256.160126,435.799835 
	C255.944595,436.019073 255.898941,436.405304 255.585144,437.507599 
M836.328674,484.474762 
	C846.552429,480.788025 853.262939,485.166992 853.465149,495.950806 
	C853.649292,505.778412 853.347900,515.615295 853.552307,525.442078 
	C853.583984,526.964966 855.037659,529.632019 856.072388,529.754517 
	C860.266479,530.251099 864.553650,529.960754 869.136597,529.960754 
	C869.136597,515.372437 869.541382,501.558197 868.979614,487.783386 
	C868.659729,479.940735 864.110718,473.897736 856.686768,470.931335 
	C848.621155,467.708557 840.689697,468.298615 833.486450,473.669495 
	C832.380920,474.493774 831.315979,475.372528 829.267090,476.986298 
	C829.267090,464.616089 829.267090,453.381165 829.267090,441.734406 
	C825.810913,441.734406 822.987549,442.010040 820.239380,441.672882 
	C815.560730,441.098877 813.913391,442.542114 813.966736,447.569275 
	C814.219604,471.396240 814.061768,495.227539 814.046204,519.057312 
	C814.038818,530.320068 814.032898,530.195496 825.072510,530.044922 
	C828.372192,529.999939 829.391418,528.942383 829.335999,525.692200 
	C829.176819,516.363403 829.338013,507.029510 829.320068,497.697754 
	C829.309753,492.346954 831.062012,487.919281 836.328674,484.474762 
M268.507629,576.885803 
	C269.157562,575.357666 269.902649,573.862366 270.442719,572.296326 
	C275.936829,556.364624 267.449615,539.075439 251.270081,533.867310 
	C235.685425,528.850647 220.055359,540.410583 215.610168,553.575012 
	C211.025589,567.152161 218.174179,582.730713 231.093124,588.794922 
	C244.415802,595.048645 259.447968,590.478210 268.507629,576.885803 
M592.796936,510.704712 
	C594.715210,508.971436 596.633484,507.238190 598.747559,505.328003 
	C603.883057,512.764160 608.759949,519.898499 613.738220,526.961487 
	C614.550171,528.113525 615.764526,529.734924 616.870117,529.798706 
	C622.079651,530.098999 627.316040,529.932495 633.708862,529.932495 
	C625.070801,517.726013 617.230042,506.646179 609.427612,495.620636 
	C616.882935,487.707733 624.282104,479.854431 631.846252,471.826019 
	C630.587646,471.096069 630.319702,470.822113 630.022400,470.785400 
	C620.003357,469.548462 611.403015,471.162781 604.780701,480.154938 
	C601.088440,485.168457 595.482544,488.772644 590.892029,492.875183 
	C590.892029,479.753021 590.894836,466.113892 590.891052,452.474762 
	C590.888123,441.670258 590.880066,441.860107 580.331482,441.607666 
	C576.284180,441.510803 575.223511,442.815125 575.250549,446.719818 
	C575.424622,471.868652 575.368042,497.019012 575.422913,522.168762 
	C575.428284,524.625916 575.675842,527.082581 575.823242,529.763123 
	C580.837036,529.763123 585.432251,529.763123 590.860107,529.763123 
	C590.860107,526.093140 590.697815,522.645691 590.911865,519.221802 
	C591.080627,516.522766 591.713013,513.852722 592.796936,510.704712 
M657.513184,470.034729 
	C633.197388,476.841858 630.566956,503.822449 639.381958,517.523499 
	C649.044006,532.541443 671.863159,536.319336 687.178711,525.274109 
	C694.887817,519.714478 694.790588,517.812073 686.780579,512.745117 
	C684.430847,511.258636 683.087219,511.133881 680.439209,513.109131 
	C676.776672,515.841125 672.058472,518.114563 667.579041,518.595093 
	C658.354187,519.584534 650.852783,512.714844 651.292358,504.609253 
	C657.748169,504.609253 664.226257,504.601532 670.704407,504.611389 
	C677.364441,504.621521 684.030640,504.486237 690.682068,504.735565 
	C694.123474,504.864594 695.766724,503.451477 695.766479,500.236694 
	C695.765747,489.462555 691.780396,477.000610 678.843933,471.540375 
	C672.184387,468.729523 665.323669,468.270325 657.513184,470.034729 
M1083.174194,478.674591 
	C1074.099976,488.107574 1071.820312,501.037140 1077.065796,513.321350 
	C1081.819580,524.454224 1093.200195,531.554199 1106.200806,531.497681 
	C1126.105225,531.411194 1140.626221,516.346558 1138.681885,497.889282 
	C1137.335571,485.108490 1130.766846,475.704865 1118.941040,471.351868 
	C1106.271973,466.688446 1094.014526,468.584625 1083.174194,478.674591 
M562.632324,479.833282 
	C553.182129,467.998596 533.169678,465.118042 521.173279,473.865784 
	C510.557587,481.606689 511.803680,496.397552 523.677979,501.856842 
	C526.963928,503.367554 530.611389,504.120941 534.129028,505.091248 
	C537.973267,506.151611 541.974365,506.760742 545.671265,508.180695 
	C547.186035,508.762543 549.057739,510.984070 549.012756,512.404114 
	C548.957275,514.154419 547.468323,516.506714 545.905945,517.445251 
	C540.309875,520.806946 530.678589,519.613647 526.589233,514.447815 
	C523.096069,510.035156 520.277832,510.824310 516.732422,513.621948 
	C515.072021,514.932190 513.386353,516.210388 511.767151,517.460632 
	C520.165100,531.610046 542.184387,536.128784 556.086487,526.944214 
	C562.289185,522.846313 565.689270,517.178223 564.829163,509.657990 
	C563.968506,502.133179 558.940063,497.888367 552.091797,495.865692 
	C546.847717,494.316833 541.413513,493.414276 536.069214,492.201050 
	C532.894226,491.480286 529.462830,490.661560 529.806274,486.476959 
	C530.138855,482.425293 533.395691,481.159027 536.921021,480.762573 
	C543.148621,480.062225 548.332092,481.982330 552.164978,488.233856 
	C556.011719,485.443573 559.411499,482.977478 562.632324,479.833282 
M770.139709,515.655151 
	C763.337891,509.947632 761.069092,500.689209 764.228638,492.681824 
	C768.046204,483.007019 782.559204,477.612427 793.002380,489.905090 
	C796.715698,487.936554 800.480408,485.940735 804.603149,483.755127 
	C799.535950,474.008179 791.495605,469.983337 781.482117,469.089844 
	C766.683411,467.769348 753.557983,475.957947 748.875671,489.380371 
	C744.049622,503.215057 749.061218,518.910706 760.715881,526.462708 
	C772.559448,534.137146 789.961121,532.898804 799.655334,523.691711 
	C805.598694,518.046997 805.532104,517.106140 798.751526,512.998840 
	C796.928040,511.894257 795.017517,510.933197 793.204163,509.937622 
	C785.636536,518.572021 780.116333,520.031311 770.139709,515.655151 
M1350.019897,531.148682 
	C1353.811890,530.824890 1357.636108,530.691833 1361.376587,530.061707 
	C1362.510010,529.870728 1364.233765,528.335938 1364.270874,527.362549 
	C1364.399902,523.982178 1363.906982,520.578125 1363.635620,516.986633 
	C1361.253662,517.397827 1359.491943,517.874573 1357.708618,517.977417 
	C1352.385864,518.284302 1349.659546,516.212769 1349.489868,510.920135 
	C1349.203369,501.985382 1349.411255,493.034821 1349.411255,483.671722 
	C1351.908447,483.671722 1354.202759,483.662170 1356.496948,483.673462 
	C1364.547485,483.713013 1364.546875,483.715729 1364.597046,475.517761 
	C1364.600098,475.018127 1364.601562,474.517151 1364.638428,474.019318 
	C1364.832397,471.396454 1363.630737,470.532715 1361.040527,470.669556 
	C1357.282349,470.868073 1353.505737,470.720459 1349.277466,470.720459 
	C1349.277466,468.246826 1349.269287,466.456757 1349.278809,464.666748 
	C1349.348511,451.499054 1349.318970,451.414581 1336.913940,455.922516 
	C1335.585449,456.405243 1334.204224,458.502838 1334.013672,459.999817 
	C1333.581787,463.391541 1333.877808,466.875946 1333.877808,470.581482 
	C1329.947998,470.768585 1326.552856,470.930237 1323.234863,471.088196 
	C1323.234863,475.409912 1323.234863,479.287048 1323.234863,483.339569 
	C1326.952271,483.507202 1330.202271,483.653778 1333.935425,483.822113 
	C1333.935425,494.356812 1333.598877,504.353729 1334.030029,514.317444 
	C1334.462036,524.302429 1339.618164,529.570007 1350.019897,531.148682 
M708.597229,470.685150 
	C705.973816,470.685150 703.350342,470.685150 700.383057,470.685150 
	C700.383057,475.178650 700.383057,479.085205 700.383057,483.476410 
	C703.833984,483.476410 707.224060,483.476410 710.976990,483.476410 
	C710.976990,493.086090 711.100891,502.223602 710.950317,511.356628 
	C710.665955,528.603821 722.447388,533.470459 737.743347,530.113403 
	C738.965942,529.845093 740.771301,528.557190 740.885010,527.578125 
	C741.276001,524.212097 741.035339,520.772644 741.035339,517.136169 
	C737.996216,517.485657 735.890137,517.902710 733.778381,517.933533 
	C729.695679,517.993347 726.823792,516.001587 726.713806,511.824036 
	C726.469849,502.562012 726.637756,493.289124 726.637756,483.408813 
	C730.545227,483.408813 734.025269,483.618134 737.457214,483.303375 
	C738.785645,483.181580 740.977661,482.002136 741.099976,481.081696 
	C741.543030,477.748291 741.274536,474.320343 741.274536,470.607300 
	C735.954834,470.607300 731.514160,470.607300 726.435486,470.607300 
	C726.435486,468.148529 726.449890,466.024628 726.433105,463.901001 
	C726.341492,452.329346 726.379822,452.478485 715.254578,455.534821 
	C711.913879,456.452576 710.707336,457.795319 710.851807,461.316559 
	C710.978210,464.394653 710.028320,467.516876 708.597229,470.685150 
M1060.836670,471.214874 
	C1057.582642,473.568298 1054.328491,475.921692 1051.138550,478.228760 
	C1050.968018,476.018616 1050.782349,473.610443 1050.584595,471.047882 
	C1045.545776,471.047882 1040.959717,471.047882 1036.141235,471.047882 
	C1036.021973,472.281250 1035.848877,473.237183 1035.849243,474.193085 
	C1035.855835,489.190094 1035.901489,504.187073 1035.902954,519.184082 
	C1035.904053,530.288086 1035.880249,530.135132 1047.090820,530.048218 
	C1050.793579,530.019470 1051.522217,528.585083 1051.447021,525.271606 
	C1051.250610,516.610901 1051.358276,507.942963 1051.371582,499.277954 
	C1051.385864,489.956543 1055.747314,484.664276 1065.116455,484.499542 
	C1070.788574,484.399841 1071.146240,482.145935 1070.917725,477.597900 
	C1070.457153,468.430634 1070.644043,468.390961 1060.836670,471.214874 
M401.375519,344.842590 
	C399.900146,346.537964 398.424774,348.233337 397.133209,349.717529 
	C410.745026,360.754395 423.893677,371.415710 437.002563,382.044739 
	C446.674164,372.849945 448.007782,362.326538 440.255524,354.183960 
	C436.032684,349.748383 431.307404,345.675476 426.337036,342.093628 
	C418.275513,336.284088 409.004639,337.370453 401.375519,344.842590 
M221.224045,465.717194 
	C217.683365,469.443787 215.245438,473.564148 215.281189,478.995178 
	C215.394119,496.146973 215.170914,513.302795 215.472824,530.450134 
	C215.533585,533.901428 217.330261,537.322083 218.537582,541.484314 
	C221.527527,538.956909 223.269241,537.484680 224.530426,536.418579 
	C223.607590,533.241272 222.155472,530.501587 222.118805,527.743164 
	C221.904068,511.592438 222.090515,495.436829 221.979507,479.283997 
	C221.948715,474.800507 223.794220,471.589081 227.437576,469.311584 
	C232.832733,465.939056 238.335114,462.849487 245.097092,463.592285 
	C248.199448,463.933105 249.981018,463.105865 250.042130,459.292145 
	C250.110977,454.995941 247.509537,455.199432 244.838013,455.404907 
	C236.058487,456.080109 228.831177,460.520325 221.224045,465.717194 
z"/>
<path fill="#0A63CC" opacity="1.000000" stroke="none" 
	d="
M196.097839,586.897461 
	C212.242783,596.174683 228.393158,605.442444 244.531174,614.731689 
	C262.553436,625.105469 280.621002,635.402466 298.553864,645.928772 
	C306.233948,650.437012 313.408936,650.325684 321.094513,645.810181 
	C348.218201,629.874023 375.457672,614.134338 402.705811,598.411133 
	C411.035156,593.604797 419.532471,589.089355 427.955139,584.444824 
	C435.226440,580.435120 438.308838,574.419922 438.259674,565.998108 
	C438.028198,526.345032 438.041260,486.689789 438.172028,447.035980 
	C438.200775,438.312683 435.034790,431.974609 427.174866,427.957153 
	C422.924042,425.784454 418.866364,423.233887 414.387604,420.661987 
	C416.445007,418.070374 418.184326,415.879456 419.887909,413.733521 
	C437.504150,421.941589 448.130188,429.000763 447.740356,450.950287 
	C447.062897,489.093292 447.325226,527.256409 447.519501,565.409424 
	C447.580170,577.327637 443.537201,586.196289 432.868469,592.220398 
	C405.626648,607.602356 378.565063,623.303711 351.441162,638.894226 
	C342.496063,644.035645 333.563507,649.199402 324.656494,654.406494 
	C314.719391,660.215698 304.632996,660.369568 294.751099,654.658875 
	C263.915558,636.838928 233.183655,618.839783 202.187317,600.259277 
	C200.811020,597.076111 199.667221,594.539917 198.503952,592.012756 
	C197.716095,590.301147 196.900833,588.602112 196.097839,586.897461 
z"/>
<path fill="#662D81" opacity="1.000000" stroke="none" 
	d="
M1187.334229,508.002502 
	C1187.321289,503.337158 1187.399414,499.168091 1187.264893,495.005890 
	C1187.022095,487.492523 1183.557129,483.403412 1177.280273,483.008362 
	C1171.308105,482.632416 1165.478516,487.681671 1164.834839,494.344818 
	C1164.388062,498.969238 1164.636719,503.663513 1164.625488,508.326721 
	C1164.611816,513.992798 1164.501221,519.665039 1164.725342,525.322937 
	C1164.857910,528.669067 1163.962036,530.049316 1160.300903,530.077942 
	C1149.203979,530.164368 1149.175781,530.314514 1149.165039,519.180664 
	C1149.150879,504.515350 1149.281128,489.849091 1149.135742,475.185333 
	C1149.101318,471.711548 1150.090332,470.329895 1153.676025,470.637177 
	C1156.948364,470.917633 1160.263550,470.696625 1163.787598,470.696625 
	C1164.109375,473.149048 1164.360718,475.065735 1164.784302,478.294800 
	C1169.966431,472.077637 1175.893311,468.917145 1183.224121,469.163055 
	C1190.827271,469.418121 1196.503418,473.004852 1199.716309,478.347473 
	C1205.143799,475.366943 1210.066772,471.169525 1215.658691,469.886475 
	C1229.699463,466.664703 1240.257080,474.873047 1240.999390,489.242340 
	C1241.643555,501.709320 1241.213745,514.231812 1241.252686,526.729797 
	C1241.254272,527.227844 1241.260742,528.147339 1241.156494,528.163391 
	C1236.969849,528.806641 1232.779297,529.592957 1228.566040,529.755127 
	C1227.698242,529.788574 1225.980225,527.475769 1225.944214,526.207703 
	C1225.683960,517.048340 1225.775269,507.879395 1225.706299,498.713867 
	C1225.691284,496.723053 1225.638550,494.708160 1225.326538,492.748383 
	C1224.350586,486.617401 1221.598633,483.883942 1216.097534,483.344269 
	C1210.571655,482.802155 1205.645386,485.667633 1204.012939,490.926849 
	C1203.142212,493.732452 1202.838013,496.801849 1202.794922,499.759735 
	C1202.668579,508.423157 1202.697632,517.092651 1202.887695,525.754883 
	C1202.957031,528.916565 1202.080933,530.119690 1198.693970,530.162170 
	C1187.276855,530.305298 1187.279175,530.437988 1187.308960,519.001465 
	C1187.318115,515.501648 1187.322876,512.001770 1187.334229,508.002502 
z"/>
<path fill="#F97228" opacity="1.000000" stroke="none" 
	d="
M382.196533,593.959106 
	C374.519135,591.104187 367.163483,588.471497 360.045074,585.305359 
	C356.159973,583.577332 354.152130,580.163330 354.188446,575.634094 
	C354.256561,567.136658 354.210052,558.636108 354.044952,550.140076 
	C353.971039,546.337646 355.670959,543.809082 358.828033,542.041870 
	C364.639801,538.788757 370.217590,534.925049 376.367798,532.540833 
	C380.091003,531.097412 385.141876,530.736511 388.825836,532.050049 
	C395.330780,534.369385 401.303345,538.239380 407.388214,541.657104 
	C410.868378,543.611877 412.250336,546.716187 412.101868,550.857422 
	C411.827362,558.513733 411.877563,566.187561 412.009888,573.850342 
	C412.081329,577.986145 410.490021,580.956299 406.862183,582.784790 
	C398.912048,586.791748 392.000763,593.062744 382.196533,593.959106 
z"/>
<path fill="#662D81" opacity="1.000000" stroke="none" 
	d="
M983.851196,528.313599 
	C981.588440,526.597168 979.645935,525.074707 977.104431,523.082825 
	C977.104431,532.542358 976.839844,541.587280 977.219116,550.605164 
	C977.401306,554.936401 975.979431,555.989380 971.909119,555.933960 
	C961.703186,555.795166 961.690796,555.964905 961.702087,545.540588 
	C961.727051,522.549377 961.763306,499.558167 961.794495,476.566956 
	C961.796692,474.919708 961.794800,473.272461 961.794800,471.180969 
	C966.838745,471.180969 971.530701,471.180969 976.578430,471.180969 
	C976.739197,473.395447 976.890686,475.482666 977.109863,478.502197 
	C983.119263,471.210999 990.511230,468.658600 999.085754,469.268738 
	C1005.852844,469.750244 1011.558960,472.466980 1016.338562,477.305237 
	C1026.802002,487.896881 1028.203369,506.839386 1019.406372,519.843933 
	C1012.069763,530.689575 997.112610,534.367310 983.851196,528.313599 
M1003.176453,486.161987 
	C996.480225,482.088043 989.606567,481.526947 983.102478,486.174103 
	C977.016724,490.522339 976.006592,497.046661 976.987549,504.006561 
	C978.118225,512.028809 984.232178,517.361511 992.739136,517.865479 
	C1000.513794,518.326050 1006.869507,513.658447 1008.776672,505.804718 
	C1010.532104,498.575684 1009.407410,491.978333 1003.176453,486.161987 
z"/>
<path fill="#662D81" opacity="1.000000" stroke="none" 
	d="
M1310.515381,478.493103 
	C1325.176880,496.650909 1318.804199,523.490234 1298.437134,530.066711 
	C1288.588867,533.246643 1279.410645,531.733582 1270.962769,524.090881 
	C1270.735718,525.947998 1270.465698,527.132568 1270.466553,528.317017 
	C1270.471924,536.145142 1270.403809,543.977234 1270.641968,551.799438 
	C1270.744995,555.183289 1269.518921,556.040833 1266.269165,555.953735 
	C1255.165649,555.656128 1255.166138,555.768372 1255.143555,544.785339 
	C1255.096924,521.965759 1255.045898,499.146149 1254.997437,476.326538 
	C1254.994019,474.701447 1254.996948,473.076355 1254.996948,471.130554 
	C1260.138062,471.130554 1264.713989,471.130554 1269.582397,471.130554 
	C1269.854248,473.090759 1270.112427,474.951141 1270.384644,476.913666 
	C1286.434326,466.006348 1298.258057,466.442444 1310.515381,478.493103 
M1274.375000,487.901489 
	C1268.917725,494.151672 1268.841187,501.260315 1271.716431,508.433960 
	C1276.062134,519.276367 1290.874878,521.515198 1298.456055,512.693665 
	C1304.177734,506.035889 1304.126587,494.006592 1298.350586,487.892578 
	C1292.372925,481.564850 1282.735474,481.353180 1274.375000,487.901489 
z"/>
<path fill="#0CB977" opacity="1.000000" stroke="none" 
	d="
M897.645630,468.183289 
	C892.907593,466.364044 888.503784,464.471649 884.164917,462.607117 
	C887.451843,450.250214 897.175720,443.657745 908.315186,442.161102 
	C912.859741,441.550537 917.710327,441.591675 922.199158,442.471436 
	C942.516052,446.453339 950.843689,468.505585 937.782349,485.045776 
	C930.499207,494.268829 921.496033,502.135498 913.241821,510.587921 
	C911.974731,511.885376 910.566345,513.044800 908.339050,515.073486 
	C910.917847,515.212402 912.598999,515.379578 914.280334,515.380676 
	C923.108948,515.386536 931.938599,515.419434 940.765625,515.290527 
	C943.749390,515.246948 945.028259,516.308594 944.865112,519.374023 
	C944.690247,522.660034 944.825745,525.962524 944.825745,529.628540 
	C924.740356,529.628540 905.218140,529.628540 885.412720,529.628540 
	C884.618835,522.457336 884.345276,516.433228 891.019592,510.963928 
	C901.032593,502.758698 909.955383,493.204102 919.146729,484.027924 
	C921.582031,481.596619 923.654541,478.638275 925.283142,475.595245 
	C929.174133,468.325012 927.045227,460.807800 920.536316,457.555908 
	C913.424805,454.002960 904.056152,456.717499 900.490784,463.368134 
	C899.645752,464.944489 898.816406,466.529266 897.645630,468.183289 
z"/>
<path fill="#772B91" opacity="1.000000" stroke="none" 
	d="
M255.679611,437.110657 
	C255.898941,436.405304 255.944595,436.019073 256.160126,435.799835 
	C264.125031,427.698212 274.328583,423.355835 284.540710,419.074921 
	C285.459930,418.689575 286.984039,418.987091 287.917297,419.515228 
	C295.593109,423.859100 303.240967,428.258453 310.759369,432.866058 
	C311.642090,433.407043 312.232849,435.399689 312.040680,436.568390 
	C310.123077,448.230316 308.045959,459.866669 305.898193,471.488861 
	C305.712250,472.494995 304.909149,473.706696 304.038147,474.213776 
	C299.005615,477.143677 294.072784,480.438477 288.677002,482.469513 
	C285.953278,483.494751 281.946106,482.941925 279.182220,481.666290 
	C272.399567,478.535858 265.871674,474.779510 259.531372,470.811462 
	C257.732727,469.685791 255.939163,467.011230 255.844711,464.968353 
	C255.422287,455.830292 255.614716,446.663818 255.679611,437.110657 
z"/>
<path fill="#055AC2" opacity="1.000000" stroke="none" 
	d="
M835.998901,484.677490 
	C831.062012,487.919281 829.309753,492.346954 829.320068,497.697754 
	C829.338013,507.029510 829.176819,516.363403 829.335999,525.692200 
	C829.391418,528.942383 828.372192,529.999939 825.072510,530.044922 
	C814.032898,530.195496 814.038818,530.320068 814.046204,519.057312 
	C814.061768,495.227539 814.219604,471.396240 813.966736,447.569275 
	C813.913391,442.542114 815.560730,441.098877 820.239380,441.672882 
	C822.987549,442.010040 825.810913,441.734406 829.267090,441.734406 
	C829.267090,453.381165 829.267090,464.616089 829.267090,476.986298 
	C831.315979,475.372528 832.380920,474.493774 833.486450,473.669495 
	C840.689697,468.298615 848.621155,467.708557 856.686768,470.931335 
	C864.110718,473.897736 868.659729,479.940735 868.979614,487.783386 
	C869.541382,501.558197 869.136597,515.372437 869.136597,529.960754 
	C864.553650,529.960754 860.266479,530.251099 856.072388,529.754517 
	C855.037659,529.632019 853.583984,526.964966 853.552307,525.442078 
	C853.347900,515.615295 853.649292,505.778412 853.465149,495.950806 
	C853.262939,485.166992 846.552429,480.788025 835.998901,484.677490 
z"/>
<path fill="#05BA76" opacity="1.000000" stroke="none" 
	d="
M268.321838,577.208984 
	C259.447968,590.478210 244.415802,595.048645 231.093124,588.794922 
	C218.174179,582.730713 211.025589,567.152161 215.610168,553.575012 
	C220.055359,540.410583 235.685425,528.850647 251.270081,533.867310 
	C267.449615,539.075439 275.936829,556.364624 270.442719,572.296326 
	C269.902649,573.862366 269.157562,575.357666 268.321838,577.208984 
z"/>
<path fill="#095DC3" opacity="1.000000" stroke="none" 
	d="
M592.468201,510.937256 
	C591.713013,513.852722 591.080627,516.522766 590.911865,519.221802 
	C590.697815,522.645691 590.860107,526.093140 590.860107,529.763123 
	C585.432251,529.763123 580.837036,529.763123 575.823242,529.763123 
	C575.675842,527.082581 575.428284,524.625916 575.422913,522.168762 
	C575.368042,497.019012 575.424622,471.868652 575.250549,446.719818 
	C575.223511,442.815125 576.284180,441.510803 580.331482,441.607666 
	C590.880066,441.860107 590.888123,441.670258 590.891052,452.474762 
	C590.894836,466.113892 590.892029,479.753021 590.892029,492.875183 
	C595.482544,488.772644 601.088440,485.168457 604.780701,480.154938 
	C611.403015,471.162781 620.003357,469.548462 630.022400,470.785400 
	C630.319702,470.822113 630.587646,471.096069 631.846252,471.826019 
	C624.282104,479.854431 616.882935,487.707733 609.427612,495.620636 
	C617.230042,506.646179 625.070801,517.726013 633.708862,529.932495 
	C627.316040,529.932495 622.079651,530.098999 616.870117,529.798706 
	C615.764526,529.734924 614.550171,528.113525 613.738220,526.961487 
	C608.759949,519.898499 603.883057,512.764160 598.747559,505.328003 
	C596.633484,507.238190 594.715210,508.971436 592.468201,510.937256 
z"/>
<path fill="#828B96" opacity="1.000000" stroke="none" 
	d="
M367.892090,458.991455 
	C374.380188,458.383911 380.811890,458.081879 386.868561,461.262573 
	C395.102417,465.586670 400.496063,471.431396 400.059692,481.625702 
	C399.547180,493.599396 399.844269,505.605682 399.621552,517.594727 
	C399.496185,524.342712 395.359192,527.494690 388.932068,526.065491 
	C388.958344,525.760620 388.862091,525.315552 389.029724,525.165771 
	C391.770477,522.716858 394.639313,519.354248 392.443970,516.231201 
	C390.909729,514.048584 386.540527,512.995422 383.410156,512.938354 
	C363.096191,512.567505 342.774750,512.574707 322.455627,512.531006 
	C314.676819,512.514221 313.958252,513.322937 313.942566,521.221436 
	C313.923706,530.716064 313.909454,540.210693 313.931152,549.705261 
	C313.947723,556.939148 316.858368,559.944824 324.242523,560.054749 
	C332.392822,560.176025 340.546326,560.082397 348.623993,560.082397 
	C350.084259,566.192993 349.693665,566.756226 344.009674,566.805054 
	C338.846252,566.849365 333.682220,566.841736 328.518524,566.829224 
	C318.568878,566.805115 318.568909,566.796997 310.618835,561.837891 
	C300.776764,570.177734 289.061676,565.550293 277.712494,566.909851 
	C277.712494,564.460144 277.712494,562.584900 277.712494,560.165588 
	C283.977173,560.165588 290.092163,560.171509 296.207184,560.164124 
	C304.926025,560.153503 306.907166,558.231873 306.928101,549.755371 
	C306.951965,540.094177 306.975616,530.433044 306.976318,520.771851 
	C306.976807,514.039185 305.436279,512.429382 298.865387,512.413757 
	C285.539856,512.382141 272.214081,512.373962 258.888550,512.401855 
	C250.109039,512.420227 247.845093,514.678406 247.835541,523.245544 
	C247.833557,525.032654 247.835236,526.819763 247.835236,528.477905 
	C241.213867,529.660645 241.067596,529.553650 240.977936,524.032166 
	C240.773605,511.447632 245.923111,506.121552 258.643280,506.050446 
	C272.468262,505.973145 286.294159,506.045654 300.119629,506.078156 
	C328.706299,506.145355 357.292908,506.222900 385.879486,506.311554 
	C392.232178,506.331268 393.161682,505.479248 393.175568,499.384766 
	C393.190735,492.721893 393.280731,486.058044 393.198090,479.396393 
	C393.113953,472.614838 386.656433,465.959595 379.888580,465.696960 
	C375.777466,465.537415 371.655151,465.667542 367.254059,465.667542 
	C367.648346,463.197968 367.926178,461.457611 368.085815,459.360535 
	C367.967590,459.003815 367.892090,458.991455 367.892090,458.991455 
z"/>
<path fill="#095DC3" opacity="1.000000" stroke="none" 
	d="
M657.905823,469.938538 
	C665.323669,468.270325 672.184387,468.729523 678.843933,471.540375 
	C691.780396,477.000610 695.765747,489.462555 695.766479,500.236694 
	C695.766724,503.451477 694.123474,504.864594 690.682068,504.735565 
	C684.030640,504.486237 677.364441,504.621521 670.704407,504.611389 
	C664.226257,504.601532 657.748169,504.609253 651.292358,504.609253 
	C650.852783,512.714844 658.354187,519.584534 667.579041,518.595093 
	C672.058472,518.114563 676.776672,515.841125 680.439209,513.109131 
	C683.087219,511.133881 684.430847,511.258636 686.780579,512.745117 
	C694.790588,517.812073 694.887817,519.714478 687.178711,525.274109 
	C671.863159,536.319336 649.044006,532.541443 639.381958,517.523499 
	C630.566956,503.822449 633.197388,476.841858 657.905823,469.938538 
M651.672791,490.614899 
	C651.450745,491.663300 651.228760,492.711700 650.979614,493.888000 
	C660.773926,493.888000 670.191162,493.888000 679.634338,493.888000 
	C678.548584,485.964355 676.136719,483.249512 668.866150,481.602173 
	C662.019470,480.050934 656.263184,482.871643 651.672791,490.614899 
z"/>
<path fill="#662D81" opacity="1.000000" stroke="none" 
	d="
M1083.425659,478.426331 
	C1094.014526,468.584625 1106.271973,466.688446 1118.941040,471.351868 
	C1130.766846,475.704865 1137.335571,485.108490 1138.681885,497.889282 
	C1140.626221,516.346558 1126.105225,531.411194 1106.200806,531.497681 
	C1093.200195,531.554199 1081.819580,524.454224 1077.065796,513.321350 
	C1071.820312,501.037140 1074.099976,488.107574 1083.425659,478.426331 
M1121.419556,492.432617 
	C1117.063232,484.009064 1109.715332,480.832764 1101.160034,483.675079 
	C1093.581787,486.192841 1088.909546,494.268799 1090.128906,502.742249 
	C1091.633667,513.199707 1098.727173,519.051208 1108.624634,517.999329 
	C1117.522095,517.053833 1123.706299,508.882355 1122.884644,499.009583 
	C1122.720459,497.037537 1122.147217,495.099609 1121.419556,492.432617 
z"/>
<path fill="#3580C2" opacity="1.000000" stroke="none" 
	d="
M395.527222,363.942413 
	C401.638672,369.057343 407.750122,374.172272 413.931152,379.970306 
	C411.519440,383.739624 409.282501,387.066833 406.515991,389.871704 
	C391.776703,404.815430 376.857178,419.581329 362.114075,434.521332 
	C358.629242,438.052643 353.536743,441.666473 352.817200,445.865051 
	C351.747559,452.106323 346.526947,454.353485 343.797791,458.977844 
	C339.127563,458.097931 334.949280,457.090881 333.098877,452.422058 
	C332.397766,450.653046 331.704926,448.880768 331.306030,446.938477 
	C333.670349,444.697327 335.750916,442.641388 337.801056,440.555511 
	C344.532501,433.706696 351.252960,426.847046 358.280701,419.848999 
	C362.794373,414.954407 367.005005,410.202393 371.229034,405.435272 
	C364.455444,398.604889 364.190186,396.089874 370.632874,388.118469 
	C375.615601,381.953369 380.839874,375.949158 386.369751,370.275970 
	C388.912201,367.667603 392.444031,366.023682 395.527222,363.942413 
z"/>
<path fill="#0463C7" opacity="1.000000" stroke="none" 
	d="
M344.199646,458.994324 
	C346.526947,454.353485 351.747559,452.106323 352.817200,445.865051 
	C353.536743,441.666473 358.629242,438.052643 362.114075,434.521332 
	C376.857178,419.581329 391.776703,404.815430 406.515991,389.871704 
	C409.282501,387.066833 411.519440,383.739624 414.009735,380.298035 
	C419.146667,383.777954 424.274536,387.613312 429.826904,391.766113 
	C422.898438,399.231720 416.523468,406.188660 410.052612,413.055206 
	C396.467896,427.470612 382.829224,441.835175 369.231201,456.238037 
	C368.673035,456.829254 368.302338,457.597473 367.868195,458.637329 
	C367.892090,458.991455 367.967590,459.003815 367.958740,458.966583 
	C365.156311,461.614075 362.446106,464.393677 359.537994,466.948029 
	C357.783234,468.489441 355.721100,469.680939 353.291107,470.689331 
	C349.923309,466.564087 347.061462,462.779205 344.199646,458.994324 
z"/>
<path fill="#0A63CC" opacity="1.000000" stroke="none" 
	d="
M173.962494,433.994873 
	C175.838684,427.922516 180.087189,423.893646 185.401855,420.823975 
	C214.062119,404.270233 242.739792,387.746613 271.393372,371.181366 
	C278.592590,367.019348 285.687134,362.675903 292.897522,358.533722 
	C303.858826,352.236816 314.843842,351.586182 325.948334,358.389618 
	C336.548126,364.883759 347.273315,371.173279 357.930359,377.545013 
	C353.935425,384.836945 353.046539,385.172394 346.563995,381.351898 
	C337.967285,376.285278 329.435516,371.108276 320.884247,365.964752 
	C313.502136,361.524567 306.161377,361.614777 298.722321,365.910156 
	C262.729706,386.692963 226.691940,407.397766 190.753815,428.274170 
	C188.124023,429.801819 186.157227,432.470764 183.181366,434.801025 
	C179.641190,434.660248 176.801834,434.327545 173.962494,433.994873 
z"/>
<path fill="#095DC3" opacity="1.000000" stroke="none" 
	d="
M562.721802,480.172302 
	C559.411499,482.977478 556.011719,485.443573 552.164978,488.233856 
	C548.332092,481.982330 543.148621,480.062225 536.921021,480.762573 
	C533.395691,481.159027 530.138855,482.425293 529.806274,486.476959 
	C529.462830,490.661560 532.894226,491.480286 536.069214,492.201050 
	C541.413513,493.414276 546.847717,494.316833 552.091797,495.865692 
	C558.940063,497.888367 563.968506,502.133179 564.829163,509.657990 
	C565.689270,517.178223 562.289185,522.846313 556.086487,526.944214 
	C542.184387,536.128784 520.165100,531.610046 511.767151,517.460632 
	C513.386353,516.210388 515.072021,514.932190 516.732422,513.621948 
	C520.277832,510.824310 523.096069,510.035156 526.589233,514.447815 
	C530.678589,519.613647 540.309875,520.806946 545.905945,517.445251 
	C547.468323,516.506714 548.957275,514.154419 549.012756,512.404114 
	C549.057739,510.984070 547.186035,508.762543 545.671265,508.180695 
	C541.974365,506.760742 537.973267,506.151611 534.129028,505.091248 
	C530.611389,504.120941 526.963928,503.367554 523.677979,501.856842 
	C511.803680,496.397552 510.557587,481.606689 521.173279,473.865784 
	C533.169678,465.118042 553.182129,467.998596 562.721802,480.172302 
z"/>
<path fill="#095DC3" opacity="1.000000" stroke="none" 
	d="
M770.481323,515.836548 
	C780.116333,520.031311 785.636536,518.572021 793.204163,509.937622 
	C795.017517,510.933197 796.928040,511.894257 798.751526,512.998840 
	C805.532104,517.106140 805.598694,518.046997 799.655334,523.691711 
	C789.961121,532.898804 772.559448,534.137146 760.715881,526.462708 
	C749.061218,518.910706 744.049622,503.215057 748.875671,489.380371 
	C753.557983,475.957947 766.683411,467.769348 781.482117,469.089844 
	C791.495605,469.983337 799.535950,474.008179 804.603149,483.755127 
	C800.480408,485.940735 796.715698,487.936554 793.002380,489.905090 
	C782.559204,477.612427 768.046204,483.007019 764.228638,492.681824 
	C761.069092,500.689209 763.337891,509.947632 770.481323,515.836548 
z"/>
<path fill="#662D81" opacity="1.000000" stroke="none" 
	d="
M1349.617310,531.106445 
	C1339.618164,529.570007 1334.462036,524.302429 1334.030029,514.317444 
	C1333.598877,504.353729 1333.935425,494.356812 1333.935425,483.822113 
	C1330.202271,483.653778 1326.952271,483.507202 1323.234863,483.339569 
	C1323.234863,479.287048 1323.234863,475.409912 1323.234863,471.088196 
	C1326.552856,470.930237 1329.947998,470.768585 1333.877808,470.581482 
	C1333.877808,466.875946 1333.581787,463.391541 1334.013672,459.999817 
	C1334.204224,458.502838 1335.585449,456.405243 1336.913940,455.922516 
	C1349.318970,451.414581 1349.348511,451.499054 1349.278809,464.666748 
	C1349.269287,466.456757 1349.277466,468.246826 1349.277466,470.720459 
	C1353.505737,470.720459 1357.282349,470.868073 1361.040527,470.669556 
	C1363.630737,470.532715 1364.832397,471.396454 1364.638428,474.019318 
	C1364.601562,474.517151 1364.600098,475.018127 1364.597046,475.517761 
	C1364.546875,483.715729 1364.547485,483.713013 1356.496948,483.673462 
	C1354.202759,483.662170 1351.908447,483.671722 1349.411255,483.671722 
	C1349.411255,493.034821 1349.203369,501.985382 1349.489868,510.920135 
	C1349.659546,516.212769 1352.385864,518.284302 1357.708618,517.977417 
	C1359.491943,517.874573 1361.253662,517.397827 1363.635620,516.986633 
	C1363.906982,520.578125 1364.399902,523.982178 1364.270874,527.362549 
	C1364.233765,528.335938 1362.510010,529.870728 1361.376587,530.061707 
	C1357.636108,530.691833 1353.811890,530.824890 1349.617310,531.106445 
z"/>
<path fill="#055AC2" opacity="1.000000" stroke="none" 
	d="
M709.075562,470.652405 
	C710.028320,467.516876 710.978210,464.394653 710.851807,461.316559 
	C710.707336,457.795319 711.913879,456.452576 715.254578,455.534821 
	C726.379822,452.478485 726.341492,452.329346 726.433105,463.901001 
	C726.449890,466.024628 726.435486,468.148529 726.435486,470.607300 
	C731.514160,470.607300 735.954834,470.607300 741.274536,470.607300 
	C741.274536,474.320343 741.543030,477.748291 741.099976,481.081696 
	C740.977661,482.002136 738.785645,483.181580 737.457214,483.303375 
	C734.025269,483.618134 730.545227,483.408813 726.637756,483.408813 
	C726.637756,493.289124 726.469849,502.562012 726.713806,511.824036 
	C726.823792,516.001587 729.695679,517.993347 733.778381,517.933533 
	C735.890137,517.902710 737.996216,517.485657 741.035339,517.136169 
	C741.035339,520.772644 741.276001,524.212097 740.885010,527.578125 
	C740.771301,528.557190 738.965942,529.845093 737.743347,530.113403 
	C722.447388,533.470459 710.665955,528.603821 710.950317,511.356628 
	C711.100891,502.223602 710.976990,493.086090 710.976990,483.476410 
	C707.224060,483.476410 703.833984,483.476410 700.383057,483.476410 
	C700.383057,479.085205 700.383057,475.178650 700.383057,470.685150 
	C703.350342,470.685150 705.973816,470.685150 709.075562,470.652405 
z"/>
<path fill="#055AC2" opacity="1.000000" stroke="none" 
	d="
M173.760498,434.193359 
	C176.801834,434.327545 179.641190,434.660248 182.931885,434.993286 
	C182.637390,439.201691 181.262726,443.406921 181.243835,447.618225 
	C181.072769,485.739594 181.402863,523.864990 180.970612,561.982239 
	C180.844864,573.071106 184.263702,581.029419 194.859467,586.120789 
	C195.491104,586.792603 195.783936,586.918518 196.126038,586.929871 
	C196.126038,586.929871 196.074097,586.947754 196.085968,586.922607 
	C196.900833,588.602112 197.716095,590.301147 198.503952,592.012756 
	C199.667221,594.539917 200.811020,597.076111 201.993530,600.011841 
	C193.861588,595.117310 185.311188,590.315308 177.677368,584.341858 
	C172.832733,580.550903 171.603836,574.236145 171.613983,567.989197 
	C171.680252,527.202332 171.700165,486.415405 171.795456,445.628632 
	C171.801620,442.990326 172.309814,440.353241 172.964172,437.289673 
	C173.419540,436.771545 173.577972,436.644592 173.556396,436.593170 
	C173.469894,436.386902 173.327591,436.204010 173.205902,436.012451 
	C173.323425,435.472260 173.440948,434.932068 173.760498,434.193359 
z"/>
<path fill="#662D81" opacity="1.000000" stroke="none" 
	d="
M1061.198242,471.093933 
	C1070.644043,468.390961 1070.457153,468.430634 1070.917725,477.597900 
	C1071.146240,482.145935 1070.788574,484.399841 1065.116455,484.499542 
	C1055.747314,484.664276 1051.385864,489.956543 1051.371582,499.277954 
	C1051.358276,507.942963 1051.250610,516.610901 1051.447021,525.271606 
	C1051.522217,528.585083 1050.793579,530.019470 1047.090820,530.048218 
	C1035.880249,530.135132 1035.904053,530.288086 1035.902954,519.184082 
	C1035.901489,504.187073 1035.855835,489.190094 1035.849243,474.193085 
	C1035.848877,473.237183 1036.021973,472.281250 1036.141235,471.047882 
	C1040.959717,471.047882 1045.545776,471.047882 1050.584595,471.047882 
	C1050.782349,473.610443 1050.968018,476.018616 1051.138550,478.228760 
	C1054.328491,475.921692 1057.582642,473.568298 1061.198242,471.093933 
z"/>
<path fill="#FEB30C" opacity="1.000000" stroke="none" 
	d="
M401.617065,344.583618 
	C409.004639,337.370453 418.275513,336.284088 426.337036,342.093628 
	C431.307404,345.675476 436.032684,349.748383 440.255524,354.183960 
	C448.007782,362.326538 446.674164,372.849945 437.002563,382.044739 
	C423.893677,371.415710 410.745026,360.754395 397.133209,349.717529 
	C398.424774,348.233337 399.900146,346.537964 401.617065,344.583618 
z"/>
<path fill="#828B96" opacity="1.000000" stroke="none" 
	d="
M343.797791,458.977875 
	C347.061462,462.779205 349.923309,466.564087 352.925659,470.656189 
	C342.997009,473.407990 332.927856,475.852600 322.463806,477.893982 
	C320.369507,472.552460 316.557739,470.166229 311.766663,468.963013 
	C312.590179,463.336243 313.255157,457.680267 314.284973,452.091492 
	C315.186432,447.199554 316.497864,442.383179 318.171967,437.287964 
	C322.813293,440.398315 326.910797,443.754150 331.008331,447.109985 
	C331.704926,448.880768 332.397766,450.653046 333.098877,452.422058 
	C334.949280,457.090881 339.127563,458.097931 343.797791,458.977875 
z"/>
<path fill="#0A63CC" opacity="1.000000" stroke="none" 
	d="
M395.341064,363.630249 
	C392.444031,366.023682 388.912201,367.667603 386.369751,370.275970 
	C380.839874,375.949158 375.615601,381.953369 370.632874,388.118469 
	C364.190186,396.089874 364.455444,398.604889 371.229034,405.435272 
	C367.005005,410.202393 362.794373,414.954407 357.959869,419.708710 
	C352.232971,416.143768 347.129974,412.576508 342.026978,409.009247 
	C349.893768,400.655334 357.764130,392.304779 365.626312,383.946533 
	C373.477905,375.599640 381.321411,367.245087 389.482513,358.559601 
	C391.484009,360.238617 393.319489,361.778351 395.341064,363.630249 
z"/>
<path fill="#828B96" opacity="1.000000" stroke="none" 
	d="
M221.478119,465.465973 
	C228.831177,460.520325 236.058487,456.080109 244.838013,455.404907 
	C247.509537,455.199432 250.110977,454.995941 250.042130,459.292145 
	C249.981018,463.105865 248.199448,463.933105 245.097092,463.592285 
	C238.335114,462.849487 232.832733,465.939056 227.437576,469.311584 
	C223.794220,471.589081 221.948715,474.800507 221.979507,479.283997 
	C222.090515,495.436829 221.904068,511.592438 222.118805,527.743164 
	C222.155472,530.501587 223.607590,533.241272 224.530426,536.418579 
	C223.269241,537.484680 221.527527,538.956909 218.537582,541.484314 
	C217.330261,537.322083 215.533585,533.901428 215.472824,530.450134 
	C215.170914,513.302795 215.394119,496.146973 215.281189,478.995178 
	C215.245438,473.564148 217.683365,469.443787 221.478119,465.465973 
z"/>
<path fill="#0463C7" opacity="1.000000" stroke="none" 
	d="
M341.695038,409.085999 
	C347.129974,412.576508 352.232971,416.143768 357.656799,419.851288 
	C351.252960,426.847046 344.532501,433.706696 337.801056,440.555511 
	C335.750916,442.641388 333.670349,444.697327 331.306030,446.938477 
	C326.910797,443.754150 322.813293,440.398315 318.373260,436.960938 
	C319.407532,434.545349 320.455139,431.919128 322.220551,429.929993 
	C328.468750,422.889893 334.962433,416.067596 341.695038,409.085999 
z"/>
<path fill="#3580C2" opacity="1.000000" stroke="none" 
	d="
M311.470642,469.177887 
	C316.557739,470.166229 320.369507,472.552460 322.122437,477.861145 
	C318.208923,479.797058 314.241821,481.362518 308.855560,483.488007 
	C309.817383,477.642151 310.496002,473.517456 311.470642,469.177887 
z"/>
<path fill="#0A63CC" opacity="1.000000" stroke="none" 
	d="
M173.079697,436.245178 
	C173.327591,436.204010 173.469894,436.386902 173.556396,436.593170 
	C173.577972,436.644592 173.419540,436.771545 173.177216,436.934082 
	C172.991562,436.828857 172.972519,436.653381 173.079697,436.245178 
z"/>
<path fill="#0A63CC" opacity="1.000000" stroke="none" 
	d="
M196.012009,586.700806 
	C195.783936,586.918518 195.491104,586.792603 195.107574,586.352905 
	C195.277740,586.259766 195.587860,586.365784 196.012009,586.700806 
z"/>
<path fill="#FEFEFE" opacity="1.000000" stroke="none" 
	d="
M1003.467529,486.394440 
	C1009.407410,491.978333 1010.532104,498.575684 1008.776672,505.804718 
	C1006.869507,513.658447 1000.513794,518.326050 992.739136,517.865479 
	C984.232178,517.361511 978.118225,512.028809 976.987549,504.006561 
	C976.006592,497.046661 977.016724,490.522339 983.102478,486.174103 
	C989.606567,481.526947 996.480225,482.088043 1003.467529,486.394440 
z"/>
<path fill="#FEFEFE" opacity="1.000000" stroke="none" 
	d="
M1274.639160,487.639496 
	C1282.735474,481.353180 1292.372925,481.564850 1298.350586,487.892578 
	C1304.126587,494.006592 1304.177734,506.035889 1298.456055,512.693665 
	C1290.874878,521.515198 1276.062134,519.276367 1271.716431,508.433960 
	C1268.841187,501.260315 1268.917725,494.151672 1274.639160,487.639496 
z"/>
<path fill="#FEFEFE" opacity="1.000000" stroke="none" 
	d="
M651.825317,490.246399 
	C656.263184,482.871643 662.019470,480.050934 668.866150,481.602173 
	C676.136719,483.249512 678.548584,485.964355 679.634338,493.888000 
	C670.191162,493.888000 660.773926,493.888000 650.979614,493.888000 
	C651.228760,492.711700 651.450745,491.663300 651.825317,490.246399 
z"/>
<path fill="#FEFEFE" opacity="1.000000" stroke="none" 
	d="
M1121.591064,492.789307 
	C1122.147217,495.099609 1122.720459,497.037537 1122.884644,499.009583 
	C1123.706299,508.882355 1117.522095,517.053833 1108.624634,517.999329 
	C1098.727173,519.051208 1091.633667,513.199707 1090.128906,502.742249 
	C1088.909546,494.268799 1093.581787,486.192841 1101.160034,483.675079 
	C1109.715332,480.832764 1117.063232,484.009064 1121.591064,492.789307 
z"/>
</svg>